<svg width="1513" height="239" viewBox="0 0 1513 239" fill="none" xmlns="http://www.w3.org/2000/svg">
<path d="M453.889 191.059C441.517 191.059 431.981 188.826 425.279 184.358C418.75 179.89 413.853 174.907 410.588 169.409H406.464V187.451H380.432V7.02942H406.979V77.6516H411.103C413.165 74.215 415.915 70.9502 419.351 67.8573C422.788 64.5925 427.341 61.9291 433.012 59.8672C438.682 57.8052 445.641 56.7742 453.889 56.7742C464.542 56.7742 474.337 59.3517 483.272 64.5066C492.207 69.6615 499.338 77.1361 504.665 86.9304C509.992 96.7247 512.655 108.409 512.655 121.984V125.85C512.655 139.596 509.906 151.367 504.407 161.161C499.08 170.783 491.949 178.172 483.014 183.327C474.251 188.482 464.542 191.059 453.889 191.059ZM446.157 167.862C457.669 167.862 467.12 164.168 474.509 156.779C482.069 149.391 485.849 138.823 485.849 125.077V122.757C485.849 109.182 482.155 98.7008 474.766 91.3121C467.378 83.9234 457.841 80.229 446.157 80.229C434.816 80.229 425.365 83.9234 417.805 91.3121C410.416 98.7008 406.722 109.182 406.722 122.757V125.077C406.722 138.823 410.416 149.391 417.805 156.779C425.365 164.168 434.816 167.862 446.157 167.862Z" fill="white"/>
<path d="M545.55 187.451V60.3827H572.097V187.451H545.55ZM558.952 43.1137C553.797 43.1137 549.416 41.4814 545.807 38.2166C542.371 34.78 540.652 30.3983 540.652 25.0716C540.652 19.7448 542.371 15.4491 545.807 12.1843C549.416 8.74772 553.797 7.02942 558.952 7.02942C564.279 7.02942 568.661 8.74772 572.097 12.1843C575.534 15.4491 577.252 19.7448 577.252 25.0716C577.252 30.3983 575.534 34.78 572.097 38.2166C568.661 41.4814 564.279 43.1137 558.952 43.1137Z" fill="white"/>
<path d="M659.179 187.451C651.447 187.451 645.261 185.131 640.621 180.492C636.154 175.852 633.92 169.667 633.92 161.934V82.8065H598.867V60.3827H633.92V18.3702H660.468V60.3827H698.356V82.8065H660.468V157.295C660.468 162.45 662.873 165.027 667.685 165.027H694.232V187.451H659.179Z" fill="white"/>
<path d="M847.305 191.059C831.153 191.059 817.75 187.451 807.096 180.234C796.443 173.017 789.913 162.106 787.508 147.5L812.251 141.572C813.626 148.617 815.946 154.202 819.21 158.326C822.475 162.45 826.513 165.371 831.324 167.089C836.308 168.807 841.634 169.667 847.305 169.667C855.724 169.667 862.168 168.034 866.636 164.769C871.275 161.505 873.595 157.295 873.595 152.14C873.595 146.985 871.447 143.205 867.151 140.799C862.855 138.394 856.498 136.417 848.078 134.871L839.315 133.325C830.723 131.778 822.905 129.544 815.86 126.623C808.815 123.702 803.23 119.664 799.106 114.509C794.982 109.354 792.92 102.739 792.92 94.6628C792.92 82.6347 797.388 73.3558 806.323 66.8263C815.258 60.1249 827.115 56.7742 841.892 56.7742C856.154 56.7742 867.838 60.039 876.945 66.5685C886.224 72.9263 892.238 81.6037 894.988 92.6008L870.244 99.5599C868.697 91.8276 865.433 86.4149 860.45 83.322C855.467 80.0572 849.281 78.4248 841.892 78.4248C834.675 78.4248 829.005 79.7995 824.881 82.5487C820.757 85.1262 818.695 88.8205 818.695 93.6318C818.695 98.7867 820.671 102.567 824.623 104.973C828.747 107.378 834.246 109.182 841.119 110.385L850.14 111.932C859.247 113.478 867.581 115.626 875.141 118.375C882.702 121.125 888.63 125.077 892.926 130.232C897.393 135.386 899.627 142.26 899.627 150.851C899.627 163.567 894.902 173.447 885.451 180.492C876 187.537 863.285 191.059 847.305 191.059Z" fill="white"/>
<path d="M930.657 239V60.3827H956.689V78.6826H960.813C964.078 73.0122 968.975 67.9432 975.505 63.4756C982.206 59.008 991.743 56.7742 1004.11 56.7742C1014.77 56.7742 1024.48 59.3517 1033.24 64.5066C1042.17 69.6615 1049.31 77.1361 1054.63 86.9304C1060.13 96.5529 1062.88 108.237 1062.88 121.984V125.85C1062.88 139.596 1060.22 151.367 1054.89 161.161C1049.56 170.783 1042.43 178.172 1033.5 183.327C1024.56 188.482 1014.77 191.059 1004.11 191.059C995.867 191.059 988.907 190.028 983.237 187.966C977.567 185.905 973.013 183.327 969.577 180.234C966.14 176.969 963.391 173.619 961.329 170.182H957.205V239H930.657ZM996.382 167.862C1008.07 167.862 1017.6 164.168 1024.99 156.779C1032.38 149.391 1036.07 138.823 1036.07 125.077V122.757C1036.07 109.182 1032.29 98.7008 1024.73 91.3121C1017.35 83.9234 1007.89 80.229 996.382 80.229C985.041 80.229 975.591 83.9234 968.03 91.3121C960.641 98.7008 956.947 109.182 956.947 122.757V125.077C956.947 138.823 960.641 149.391 968.03 156.779C975.591 164.168 985.041 167.862 996.382 167.862Z" fill="white"/>
<path d="M1135.21 191.059C1126.1 191.059 1117.94 189.513 1110.72 186.42C1103.68 183.327 1098.01 178.774 1093.71 172.76C1089.59 166.745 1087.53 159.443 1087.53 150.851C1087.53 142.088 1089.59 134.871 1093.71 129.201C1098.01 123.358 1103.77 118.977 1110.98 116.056C1118.37 113.134 1126.7 111.674 1135.98 111.674H1174.64V103.426C1174.64 96.0374 1172.41 90.1093 1167.94 85.6417C1163.48 81.1741 1156.6 78.9403 1147.32 78.9403C1138.22 78.9403 1131.26 81.0882 1126.45 85.3839C1121.64 89.6797 1118.46 95.2642 1116.91 102.137L1092.17 94.1473C1094.23 87.2741 1097.49 81.0882 1101.96 75.5896C1106.6 69.9192 1112.7 65.3657 1120.26 61.9291C1127.82 58.4925 1136.93 56.7742 1147.58 56.7742C1164.08 56.7742 1177.05 60.9841 1186.5 69.4037C1195.95 77.8234 1200.68 89.7656 1200.68 105.23V157.553C1200.68 162.707 1203.08 165.285 1207.89 165.285H1218.72V187.451H1198.87C1192.86 187.451 1187.96 185.905 1184.18 182.812C1180.4 179.719 1178.51 175.509 1178.51 170.182V169.409H1174.64C1173.27 171.986 1171.21 174.993 1168.46 178.43C1165.71 181.866 1161.67 184.874 1156.35 187.451C1151.02 189.857 1143.97 191.059 1135.21 191.059ZM1139.08 169.151C1149.73 169.151 1158.32 166.144 1164.85 160.13C1171.38 153.944 1174.64 145.524 1174.64 134.871V132.294H1137.53C1130.48 132.294 1124.81 133.84 1120.52 136.933C1116.22 139.854 1114.07 144.236 1114.07 150.078C1114.07 155.92 1116.31 160.56 1120.78 163.996C1125.24 167.433 1131.34 169.151 1139.08 169.151Z" fill="white"/>
<path d="M1300.54 191.059C1288.34 191.059 1277.25 188.482 1267.29 183.327C1257.49 178.172 1249.67 170.698 1243.83 160.903C1238.16 151.109 1235.33 139.339 1235.33 125.592V122.241C1235.33 108.495 1238.16 96.8106 1243.83 87.1881C1249.67 77.3938 1257.49 69.9192 1267.29 64.7643C1277.25 59.4376 1288.34 56.7742 1300.54 56.7742C1312.74 56.7742 1323.13 59.008 1331.72 63.4756C1340.31 67.9432 1347.19 73.8713 1352.34 81.26C1357.67 88.6487 1361.11 96.8106 1362.65 105.746L1336.88 111.158C1336.02 105.488 1334.21 100.333 1331.46 95.6937C1328.72 91.0543 1324.85 87.36 1319.87 84.6107C1314.88 81.8614 1308.61 80.4868 1301.05 80.4868C1293.66 80.4868 1286.96 82.2051 1280.95 85.6417C1275.1 88.9064 1270.47 93.7177 1267.03 100.075C1263.59 106.261 1261.87 113.822 1261.87 122.757V125.077C1261.87 134.012 1263.59 141.658 1267.03 148.016C1270.47 154.374 1275.1 159.185 1280.95 162.45C1286.96 165.714 1293.66 167.347 1301.05 167.347C1312.22 167.347 1320.73 164.512 1326.57 158.841C1332.41 152.999 1336.1 145.61 1337.65 136.675L1363.43 142.603C1361.36 151.367 1357.67 159.443 1352.34 166.831C1347.19 174.22 1340.31 180.148 1331.72 184.616C1323.13 188.912 1312.74 191.059 1300.54 191.059Z" fill="white"/>
<path d="M1452.29 191.059C1439.41 191.059 1428.15 188.396 1418.53 183.069C1408.91 177.571 1401.35 169.924 1395.85 160.13C1390.52 150.164 1387.86 138.651 1387.86 125.592V122.499C1387.86 109.268 1390.52 97.7557 1395.85 87.9614C1401.18 77.9952 1408.56 70.3488 1418.01 65.0221C1427.64 59.5235 1438.72 56.7742 1451.26 56.7742C1463.46 56.7742 1474.12 59.5235 1483.22 65.0221C1492.5 70.3488 1499.72 77.8234 1504.87 87.4459C1510.03 97.0684 1512.61 108.323 1512.61 121.211V131.263H1414.92C1415.27 142.432 1418.96 151.367 1426 158.068C1433.22 164.598 1442.16 167.862 1452.81 167.862C1462.78 167.862 1470.25 165.629 1475.23 161.161C1480.39 156.693 1484.34 151.538 1487.09 145.696L1509 157.037C1506.59 161.848 1503.07 166.917 1498.43 172.244C1493.96 177.571 1488.04 182.038 1480.65 185.647C1473.26 189.255 1463.81 191.059 1452.29 191.059ZM1415.18 110.901H1485.54C1484.86 101.278 1481.42 93.8036 1475.23 88.4769C1469.05 82.9783 1460.97 80.229 1451.01 80.229C1441.04 80.229 1432.88 82.9783 1426.52 88.4769C1420.33 93.8036 1416.55 101.278 1415.18 110.901Z" fill="white"/>
<path d="M0 98.1886H89.3321V187.451H0V98.1886Z" fill="white"/>
<path d="M98.2653 98.1886H187.597V187.451H98.2653V98.1886Z" fill="white"/>
<path d="M0 0H89.3321V89.2624H0V0Z" fill="white"/>
<path d="M98.2653 0H187.597V89.2624H98.2653V0Z" fill="white"/>
<path d="M196.531 98.1886H285.863V187.451H196.531V98.1886Z" fill="white"/>
</svg>
